<svg xmlns="http://www.w3.org/2000/svg" version="1.1" xmlns:xlink="http://www.w3.org/1999/xlink" xmlns:svgjs="http://svgjs.dev/svgjs" width="1920" height="1080" preserveAspectRatio="none" viewBox="0 0 1920 1080"><g mask="url(&quot;#SvgjsMask22633&quot;)" fill="none"><rect width="333.71999999999997" height="333.71999999999997" clip-path="url(&quot;#SvgjsClipPath22634&quot;)" x="1321.6" y="181.35" fill="url(&quot;#SvgjsPattern22635&quot;)" transform="rotate(19.51, 1488.46, 348.21)"></rect><path d="M498.03 495.69L510.81 496.51 512.81 509.16 525.59 509.98 527.6 522.63 540.38 523.45 542.38 536.1M492.64 501.61L505.42 502.43 507.42 515.07 520.2 515.89 522.21 528.54 534.99 529.36 537 542.01M487.25 507.52L500.03 508.34 502.04 520.99 514.82 521.81 516.82 534.46 529.6 535.28 531.61 547.93" stroke="rgba(16, 136, 185, 1)" stroke-width="1.71"></path><circle r="150.05831620015337" cx="1905.39" cy="122.02" fill="rgba(185, 176, 16, 1)"></circle><rect width="588" height="588" clip-path="url(&quot;#SvgjsClipPath22636&quot;)" x="754.15" y="532.2" fill="url(&quot;#SvgjsPattern22637&quot;)" transform="rotate(198.61, 1048.15, 826.2)"></rect><path d="M689.34 977.3 L875.45 704.32L989.2826132239582 1047.6976132239581z" stroke="rgba(16, 136, 185, 1)" stroke-width="1.79"></path><path d="M1019.24 1133.46 L1248.87 859.46L980.8632024400565 843.2682024400567z" stroke="rgba(185, 176, 16, 1)" stroke-width="2.26" stroke-dasharray="3, 3"></path><rect width="480" height="480" clip-path="url(&quot;#SvgjsClipPath22638&quot;)" x="170.93" y="464.89" fill="url(&quot;#SvgjsPattern22639&quot;)" transform="rotate(86.33, 410.93, 704.89)"></rect><path d="M878.89 515.19L888.19 523.99 881.64 535 890.93 543.8 884.38 554.81 893.68 563.61 887.13 574.62M870.97 516.28L880.26 525.09 873.71 536.09 883.01 544.9 876.46 555.91 885.75 564.71 879.2 575.72M863.04 517.38L872.34 526.19 865.79 537.19 875.08 546 868.53 557 877.83 565.81 871.28 576.81" stroke="rgba(185, 176, 16, 1)" stroke-width="1.3"></path></g><defs><mask id="SvgjsMask22633"><rect width="1920" height="1080" fill="#ffffff"></rect></mask><pattern x="0" y="0" width="6.18" height="6.18" patternUnits="userSpaceOnUse" id="SvgjsPattern22635"><path d="M0 6.18L3.09 0L6.18 6.18" stroke="rgba(16, 185, 129, 1)" fill="none"></path></pattern><clipPath id="SvgjsClipPath22634"><circle r="83.42999999999999" cx="1488.46" cy="348.21"></circle></clipPath><pattern x="0" y="0" width="6" height="6" patternUnits="userSpaceOnUse" id="SvgjsPattern22637"><path d="M0 6L3 0L6 6" stroke="rgba(16, 136, 185, 1)" fill="none"></path></pattern><clipPath id="SvgjsClipPath22636"><circle r="147" cx="1048.15" cy="826.2"></circle></clipPath><pattern x="0" y="0" width="480" height="6" patternUnits="userSpaceOnUse" id="SvgjsPattern22639"><rect width="480" height="3" x="0" y="0" fill="rgba(16, 136, 185, 1)"></rect><rect width="480" height="3" x="0" y="3" fill="rgba(0, 0, 0, 0)"></rect></pattern><clipPath id="SvgjsClipPath22638"><circle r="120" cx="410.93" cy="704.89"></circle></clipPath></defs></svg>